@startuml

!theme monokai_npp from ..\.styles
scale 2

hide class empty members

class A {
    +attr: <i>str</i>
    __init__()
}

class B {
    +attr: <i>str</i>
    __init__()
}

class C {
    __init__()
}

class D {
    __init__()
}

A <|-- C
B <|-- C
A <|-- D
B <|-- D

class E

E <|-- F
C <|-- F
D <|-- F

@enduml
